Coordinates
version=1
nRows=6
nColumns=63
inDegrees=yes

Units are S.I. units (second, meters, Newtons, ...)
If the header above contains a line with 'inDegrees', this indicates whether rotational values are in degrees (yes) or radians (no).

endheader
time	pelvis_tilt	pelvis_list	pelvis_rotation	pelvis_tx	pelvis_ty	pelvis_tz	hip_flexion_r	hip_adduction_r	hip_rotation_r	knee_angle_r	knee_angle_r_beta	ankle_angle_r	subtalar_angle_r	mtp_angle_r	hip_flexion_l	hip_adduction_l	hip_rotation_l	knee_angle_l	knee_angle_l_beta	ankle_angle_l	subtalar_angle_l	mtp_angle_l	L5_S1_Flex_Ext	L5_S1_Lat_Bending	L5_S1_axial_rotation	L4_L5_Flex_Ext	L4_L5_Lat_Bending	L4_L5_axial_rotation	L3_L4_Flex_Ext	L3_L4_Lat_Bending	L3_L4_axial_rotation	L2_L3_Flex_Ext	L2_L3_Lat_Bending	L2_L3_axial_rotation	L1_L2_Flex_Ext	L1_L2_Lat_Bending	L1_L2_axial_rotation	L1_T12_Flex_Ext	L1_T12_Lat_Bending	L1_T12_axial_rotation	Abs_r3	Abs_r2	Abs_r1	Abs_t1	Abs_t2	neck_flexion	neck_bending	neck_rotation	arm_flex_r	arm_add_r	arm_rot_r	elbow_flex_r	pro_sup_r	wrist_flex_r	wrist_dev_r	arm_flex_l	arm_add_l	arm_rot_l	elbow_flex_l	pro_sup_l	wrist_flex_l	wrist_dev_l
2.191489	0.725962	-0.918894	88.881772	0.215270	0.740564	0.907349	5.856392	4.509289	18.344763	15.566908	0.271694	41.001122	-7.433747	0.000000	1.816458	-0.613606	4.397489	8.948246	0.156176	41.595795	-6.339214	0.000000	0.057009	-0.123110	1.620676	0.105872	-0.163736	1.721969	0.093661	-0.299329	1.721969	0.065156	-0.299329	1.418092	0.052939	-0.251045	1.316800	0.032575	-0.190697	1.215507	0.407213	-1.392641	9.013716	0.000000	0.000000	14.351763	3.112599	-3.952416	-35.296822	-58.934114	-45.188556	76.190208	65.661670	34.644219	26.893085	-4.415304	-67.158353	-25.950930	56.706370	87.515849	38.131209	24.737405
2.212766	0.598800	-0.902711	89.042922	0.214720	0.740959	0.906548	5.322649	4.141533	17.739239	14.889185	0.259865	40.604190	-6.975642	0.000000	1.436140	-0.428881	5.195854	8.304917	0.144948	41.083545	-6.874447	0.000000	0.060225	-0.157609	1.628888	0.111844	-0.209620	1.730693	0.098943	-0.383210	1.730693	0.068831	-0.383210	1.425277	0.055925	-0.321396	1.323471	0.034412	-0.244136	1.221666	0.430180	-1.782903	9.059384	0.000000	0.000000	13.980225	3.506157	-4.742938	-34.150488	-58.927634	-53.589186	74.166629	66.906429	30.409977	29.442408	-1.166036	-66.924964	-32.823664	57.727641	87.272172	31.026248	26.304630
2.234043	0.496848	-0.837932	89.214815	0.214091	0.741369	0.905820	4.792760	3.816452	17.116452	14.295275	0.249500	40.265092	-6.508916	0.000000	1.043584	-0.265372	6.040235	7.740838	0.135103	40.599682	-7.447755	0.000000	0.058021	-0.187504	1.635653	0.107751	-0.249380	1.737881	0.095322	-0.455897	1.737881	0.066312	-0.455897	1.431196	0.053878	-0.382358	1.328968	0.033153	-0.290444	1.226740	0.414437	-2.121082	9.097010	0.000000	0.000000	13.583125	3.921157	-5.525557	-32.130477	-58.828990	-61.338068	72.283702	68.873430	24.883899	30.712567	2.647424	-66.322030	-39.099866	59.212196	86.755677	23.106098	26.001541
2.255319	0.447753	-0.746977	89.392096	0.213382	0.741728	0.905155	4.310568	3.573154	16.523424	13.817672	0.241164	39.992659	-6.080986	0.000000	0.659790	-0.154436	6.889711	7.257434	0.126666	40.166366	-8.032085	0.000000	0.053922	-0.206550	1.614984	0.100138	-0.274711	1.715920	0.088588	-0.502205	1.715920	0.061627	-0.502205	1.413111	0.050072	-0.421196	1.312174	0.030811	-0.319946	1.211238	0.385157	-2.336533	8.982055	0.000000	0.000000	13.193080	4.262400	-6.080944	-29.152165	-58.591959	-68.126344	70.818870	71.568874	18.732986	30.884377	6.419094	-65.391776	-44.927709	61.210429	86.373338	14.508697	24.211106
2.276596	0.456623	-0.637715	89.593385	0.212576	0.742013	0.904595	3.902545	3.420623	15.963706	13.477001	0.235218	39.804730	-5.703173	0.000000	0.301819	-0.100150	7.743369	6.863274	0.119787	39.792095	-8.627322	0.000000	0.048056	-0.213093	1.560682	0.089245	-0.283414	1.658224	0.078951	-0.518115	1.658224	0.054923	-0.518115	1.365597	0.044625	-0.434540	1.268054	0.027459	-0.330081	1.170511	0.343260	-2.410553	8.680044	0.000000	0.000000	12.832968	4.492064	-6.391821	-25.372728	-58.181784	-73.800405	69.910120	74.973427	12.557774	29.994693	9.934367	-64.107369	-50.183257	63.682180	86.760788	5.571292	21.498967
2.297872	0.535237	-0.527798	89.833218	0.211653	0.742207	0.904173	3.591805	3.374259	15.470952	13.271800	0.231637	39.703013	-5.417413	0.000000	-0.000470	-0.118377	8.538782	6.572606	0.114714	39.499027	-9.155762	0.000000	0.041707	-0.204015	1.466273	0.077455	-0.271339	1.557915	0.068521	-0.496041	1.557915	0.047667	-0.496041	1.282989	0.038730	-0.416027	1.191347	0.023832	-0.316019	1.099705	0.297912	-2.307855	8.154970	0.000000	0.000000	12.507693	4.582510	-6.360248	-20.957783	-57.597820	-78.138742	69.613501	79.011583	6.633028	28.059114	12.934985	-62.450124	-54.732550	66.454728	87.179599	-2.837176	17.934745
